<svg version="1.1" id="Layer_1" xmlns="http://www.w3.org/2000/svg" xmlns:xlink="http://www.w3.org/1999/xlink" x="0px" y="0px"
	 width="100%" viewBox="0 0 1024 1024" enable-background="new 0 0 1024 1024" xml:space="preserve">
<path fill="#000000" opacity="1.000000" stroke="none" 
	d="
M586.887146,509.197510 
	C592.234375,514.912659 592.660645,516.268494 588.361084,522.396118 
	C574.714050,541.845398 561.813965,561.842468 546.511902,580.096985 
	C544.816284,582.119751 543.608765,584.543640 542.013855,586.660217 
	C537.541199,592.595581 533.172791,593.286316 527.227783,588.961060 
	C520.025513,583.721130 515.672546,575.751709 509.075592,569.884399 
	C505.281494,566.509949 502.026611,562.529175 498.160126,559.131470 
	C498.521271,564.017273 502.585785,568.379333 498.849121,573.474548 
	C494.670685,571.927246 495.096039,567.084351 492.533325,565.391968 
	C486.172607,578.115723 476.993896,587.572815 463.708588,592.646423 
	C456.230560,595.502319 455.306671,598.796814 460.915375,604.444519 
	C462.003265,605.539978 462.150909,606.562988 461.541382,608.012024 
	C458.704895,614.755493 461.654816,620.210449 465.687225,625.319885 
	C466.914978,626.875610 468.610809,628.067749 469.800659,629.646301 
	C473.444916,634.481018 472.916595,638.395569 468.143402,642.156372 
	C461.441101,647.437195 453.563599,650.727234 446.189911,654.863159 
	C441.990967,657.218262 437.523071,659.089783 433.214325,661.254639 
	C430.337646,662.699951 427.286194,663.528503 424.125092,663.810120 
	C418.816040,664.283020 415.727234,661.683777 414.602081,656.492798 
	C413.363098,650.776550 413.202942,644.986755 412.940674,639.192993 
	C412.240753,623.730225 411.339661,608.271912 411.932190,592.780884 
	C412.168579,586.600708 410.519165,584.607117 404.743195,582.519165 
	C397.752686,579.992065 392.663910,581.308350 387.166107,586.925232 
	C364.918091,609.654907 342.290375,632.024963 319.373199,654.081421 
	C310.777130,662.354614 300.998322,669.396790 291.788788,677.036377 
	C290.009216,678.512634 288.175812,678.808899 286.322906,677.463867 
	C283.905365,675.708984 281.245667,674.095642 279.338409,671.866699 
	C273.935425,665.552429 268.835907,658.976807 263.672394,652.460083 
	C261.521332,649.745361 261.391052,647.174255 264.115173,644.524658 
	C278.317932,630.710510 292.487000,616.860840 306.576294,602.931030 
	C318.525970,591.116638 330.333313,579.158386 342.244507,567.304871 
	C345.043732,564.519226 348.149048,562.455444 352.485321,563.622375 
	C354.966522,564.290100 357.114716,563.186707 358.834839,561.473389 
	C369.333038,551.016968 379.796173,540.525269 390.248352,530.022705 
	C391.706970,528.557007 392.549896,526.636475 392.701080,524.651123 
	C393.156464,518.671936 396.564636,514.425964 400.828369,510.838531 
	C403.784546,508.351196 405.415070,505.707489 404.111481,502.038452 
	C409.348511,498.710663 412.965607,494.140137 416.918182,489.913788 
	C418.893188,487.801971 420.987457,485.799133 423.071167,483.791992 
	C426.631317,480.362671 430.634735,477.288422 433.645203,473.434784 
	C435.328094,471.280518 437.654480,468.842010 439.274536,467.837982 
	C443.674591,465.110931 446.803223,460.914001 450.356110,457.686615 
	C453.647980,454.696381 457.256805,450.857513 460.373993,447.178497 
	C463.330811,443.688782 466.853577,440.131287 470.477448,436.935760 
	C474.274689,433.587280 477.784027,429.613098 481.417877,426.124908 
	C486.296082,421.442291 490.754822,416.309784 495.818878,411.789124 
	C501.109467,407.066193 505.438599,401.208710 510.956146,396.810852 
	C519.764160,389.790253 526.567322,380.795868 535.133484,373.519165 
	C538.763428,370.435669 542.094727,366.408386 545.528931,362.932343 
	C550.240784,358.163116 554.989197,353.331207 559.879883,348.690125 
	C566.435852,342.468750 572.338501,335.537292 579.083130,329.542297 
	C585.813171,323.560364 591.711487,316.788940 598.294556,310.684631 
	C603.499756,305.858002 608.373962,300.675720 613.432678,295.689392 
	C616.673828,292.494598 620.804199,293.455658 623.752197,295.157715 
	C628.252014,297.755707 631.177917,296.888245 634.570984,293.562500 
	C647.406677,280.981476 660.355408,268.514740 673.338135,256.084930 
	C692.313171,237.918030 711.350403,219.816116 730.367981,201.693649 
	C743.001526,189.654785 755.650085,177.631638 768.281433,165.590439 
	C769.351868,164.569977 771.021118,163.286072 769.905640,161.845535 
	C767.282166,158.457535 769.747437,156.745956 771.721985,154.749542 
	C780.275879,146.100662 788.906067,137.525360 797.349670,128.770142 
	C800.342712,125.666702 802.655701,125.640762 805.643372,128.792542 
	C811.947510,135.442612 818.441162,141.917404 824.982849,148.335968 
	C827.960571,151.257675 828.353455,153.851624 825.038391,156.723770 
	C815.338806,165.127319 806.366516,174.293472 797.271545,183.330093 
	C797.035217,183.564880 796.832764,183.913437 796.547791,184.008224 
	C782.649231,188.631134 775.681641,201.462769 765.489868,210.441299 
	C753.892944,220.657654 742.919922,231.588165 731.787964,242.324692 
	C715.550232,257.985626 699.599243,273.948883 683.162292,289.396179 
	C673.334412,298.632263 664.015137,308.371155 654.183838,317.587128 
	C651.262878,320.325287 650.191040,322.524353 653.515198,325.815979 
	C657.906982,330.164856 655.321777,336.406891 657.142883,341.524475 
	C657.466553,342.434113 656.965759,343.787811 657.475220,344.457214 
	C662.225281,350.697815 656.794067,353.703949 653.371094,357.076813 
	C648.098450,362.272339 642.437134,366.973114 637.652771,372.782074 
	C634.928772,376.089508 631.342712,379.239899 627.815369,381.980591 
	C623.995300,384.948730 621.202820,388.793549 617.714294,392.012085 
	C613.963074,395.472992 610.888489,399.739532 606.884216,402.833313 
	C603.007690,405.828339 600.096375,409.632111 596.610291,412.925140 
	C592.659729,416.657043 588.927917,420.619629 585.067383,424.447968 
	C581.346313,428.137970 577.727722,432.013794 573.950867,435.533752 
	C570.371704,438.869446 567.339905,442.849548 563.340332,445.717773 
	C555.463318,451.366638 551.295288,459.129028 549.924133,468.565369 
	C549.635437,470.552155 551.084595,471.628967 552.276001,472.717590 
	C564.594055,483.972595 574.864929,497.166138 586.887146,509.197510 
M492.200104,461.701019 
	C481.335663,472.921906 469.785126,483.438690 458.852539,494.606415 
	C438.728851,515.162842 418.021881,535.148254 397.561462,555.375061 
	C393.065582,559.819641 388.585205,564.279846 384.095123,568.730286 
	C382.368744,570.441345 380.271820,570.995728 378.178223,569.804504 
	C376.046875,568.591675 376.714508,566.297668 376.818268,564.357239 
	C376.903503,562.763611 377.960236,561.619873 379.037537,560.559998 
	C389.470612,550.295227 399.907104,540.033875 410.354675,529.783813 
	C413.348450,526.846619 416.414368,523.923828 416.632538,519.371826 
	C416.885681,514.090088 419.175995,510.052032 422.911194,506.282471 
	C445.977600,483.003876 470.207703,460.931702 493.506561,437.897430 
	C496.113861,435.319733 498.650940,432.667053 501.333649,430.170624 
	C504.601318,427.129852 508.043121,424.921692 512.145630,429.024353 
	C512.577148,429.455902 513.342896,429.798462 513.941040,429.779816 
	C519.011414,429.621765 521.359070,432.809845 522.718079,436.770386 
	C528.997131,437.631012 534.264160,435.475708 538.255798,431.356354 
	C546.702942,422.639038 555.053955,413.815002 564.106812,405.741150 
	C573.795593,397.100098 582.598816,387.556549 592.379333,378.987244 
	C598.715088,373.436096 604.373840,367.026825 610.586853,361.237427 
	C620.702332,351.811646 630.578857,342.128906 640.516602,332.513611 
	C641.555481,331.508484 643.269531,329.725372 642.018311,328.758911 
	C638.829102,326.295563 639.003540,321.786377 635.515137,319.522949 
	C631.761841,317.087616 628.145020,314.305481 624.954224,311.179077 
	C621.943726,308.229279 619.993286,308.605042 617.206360,311.466858 
	C608.862183,320.035217 600.743225,328.920044 591.658630,336.649780 
	C573.169006,352.381805 556.716248,370.217255 539.046448,386.786530 
	C525.750916,399.254059 512.650024,412.054657 499.895630,425.169464 
	C481.155151,444.439545 461.508087,462.830566 442.694031,482.050507 
	C431.312439,493.677643 419.751221,505.129150 408.252289,516.641174 
	C405.353943,519.542786 403.331635,522.674561 403.074707,527.051270 
	C402.809662,531.565735 401.493439,535.986328 397.830780,539.117981 
	C386.037994,549.201172 375.347656,560.391846 364.734406,571.673218 
	C362.190369,574.377380 359.036316,576.805420 355.099792,575.983276 
	C351.678436,575.268738 349.938660,577.018860 347.760773,578.929077 
	C337.250885,588.147400 328.018463,598.651978 317.956512,608.306152 
	C304.661713,621.062073 291.612701,634.054443 278.622345,647.114502 
	C276.301239,649.448059 275.827393,651.714294 277.610535,654.126465 
	C280.173706,657.593628 282.962830,660.931580 285.961029,664.028931 
	C289.070465,667.241272 291.835052,667.004211 295.089539,663.360962 
	C302.443207,655.128845 310.666779,647.715637 318.234833,639.651428 
	C325.733429,631.661255 334.157318,624.548462 341.885651,616.763184 
	C360.643768,597.867004 379.075745,578.645386 397.936432,559.853271 
	C416.053253,541.802307 434.684875,524.268494 452.826874,506.242310 
	C468.031067,491.135132 483.385498,476.197571 499.084656,461.605133 
	C504.838318,456.257050 510.164551,450.449066 515.686890,444.849792 
	C512.875366,442.573059 510.855286,443.593231 508.856903,445.552521 
	C503.503326,450.801331 498.089813,455.988983 492.200104,461.701019 
M447.325836,603.129639 
	C445.246155,591.014160 443.198975,578.893005 441.072052,566.785828 
	C440.116211,561.344910 442.031311,557.030457 445.891022,553.342346 
	C453.226837,546.332703 460.604248,539.364258 467.822449,532.234924 
	C470.485046,529.605103 472.624878,529.906921 475.021881,532.408325 
	C478.110535,535.631348 481.253265,538.810547 485.108582,541.445007 
	C485.998840,540.756042 486.898102,540.270630 487.520294,539.546936 
	C495.631104,530.112671 502.366760,519.653320 509.406952,509.451355 
	C517.336731,497.960297 524.311646,485.814209 532.100098,474.220490 
	C540.348328,461.942261 540.418335,461.254852 529.483582,451.362274 
	C527.616943,449.673523 526.308289,449.423645 524.484741,451.309937 
	C520.435486,455.498566 516.314270,459.622742 512.107727,463.653534 
	C477.714172,496.610748 444.309540,530.566284 410.566833,564.180359 
	C408.946838,565.794189 407.071777,567.285706 407.109009,570.294678 
	C409.136658,571.225342 411.189301,572.267395 413.316162,573.125488 
	C420.309082,575.946899 423.343658,580.926453 423.353119,588.607849 
	C423.374847,606.195679 423.939331,623.783264 424.346100,641.369446 
	C424.388031,643.183044 424.808105,644.994995 425.132843,646.793213 
	C425.537842,649.035950 426.829956,650.008057 429.074310,649.163940 
	C438.301941,645.693298 446.970978,641.141541 455.091370,635.554688 
	C456.494049,634.589600 457.119812,633.317139 455.923309,631.744324 
	C449.670990,623.525269 449.501038,613.469849 447.325836,603.129639 
M523.334717,513.760742 
	C520.720337,516.976685 518.152466,520.232117 515.475952,523.395447 
	C513.526794,525.699158 512.514465,527.762207 515.561707,530.065247 
	C516.996826,531.149902 518.022400,532.761902 519.307800,534.061340 
	C527.129456,541.968689 533.490051,551.226807 541.997986,558.509705 
	C543.827637,560.075867 545.275940,561.476685 547.244202,558.798096 
	C551.762512,552.649170 556.301453,546.514465 560.907471,540.431152 
	C562.357178,538.516541 562.375305,536.922607 560.702698,535.140991 
	C550.961060,524.764343 541.262207,514.347656 531.217224,503.589233 
	C528.561523,506.960815 526.127991,510.050354 523.334717,513.760742 
M628.352112,361.853394 
	C633.651428,356.110046 638.950745,350.366730 644.250122,344.623383 
	C642.926697,344.685974 642.062683,345.207275 641.359070,345.893250 
	C630.178772,356.793457 619.023987,367.719727 607.853271,378.629852 
	C595.937622,390.267578 584.066284,401.951599 572.072510,413.508362 
	C562.489441,422.742249 552.747070,431.810608 543.086975,440.964630 
	C541.355103,442.605774 540.289001,444.500336 542.276550,446.583801 
	C544.250366,448.652954 546.203247,447.771149 547.909485,446.053925 
	C558.921021,434.971405 569.581787,423.537231 580.273621,412.163361 
	C596.001648,395.432129 612.141235,379.098755 628.352112,361.853394 
M462.519440,566.802124 
	C463.923309,568.200317 465.050568,569.990417 467.101166,570.527832 
	C468.699036,570.946533 470.139740,571.489746 469.561554,573.460938 
	C469.048187,575.211182 467.609039,576.114807 465.774231,576.197144 
	C463.365234,576.305176 461.864227,574.694092 460.211487,573.270447 
	C458.298920,571.622986 457.135406,568.919250 454.187775,568.517944 
	C452.709473,573.543274 453.502655,577.904785 457.034149,579.702332 
	C460.532379,581.482910 464.424927,582.254272 468.360809,579.877930 
	C470.907990,578.340027 472.114899,575.593384 474.336304,573.991211 
	C483.873474,567.112610 481.451385,554.437561 472.987244,548.819092 
	C469.962585,551.677490 466.801819,554.577881 463.743164,557.582214 
	C461.246033,560.034912 460.533752,562.931763 462.519440,566.802124 
M531.837158,565.704346 
	C524.472778,557.417542 517.163818,549.080139 509.692322,540.891052 
	C508.367096,539.438538 507.192963,536.254333 504.205048,538.783997 
	C501.550049,541.031860 500.755066,543.307434 503.515503,546.335205 
	C511.894836,555.525818 520.049561,564.920898 528.377808,574.158813 
	C529.735901,575.665283 530.679321,578.923828 533.754700,576.585144 
	C536.363647,574.601257 536.177246,572.067017 534.580505,569.504333 
	C533.880920,568.381592 533.075256,567.324890 531.837158,565.704346 
z"/>
<path fill="#000000" opacity="1.000000" stroke="none" 
	d="
M258.189087,699.812988 
	C250.716736,692.238770 243.451782,684.957214 236.242584,677.620789 
	C233.554260,674.885010 233.048325,671.728455 235.460342,668.614441 
	C239.748520,663.078186 244.833908,658.253662 249.967468,653.536011 
	C253.359543,650.418701 256.598633,651.814392 259.538879,654.863647 
	C272.480072,668.284607 283.985870,682.944458 296.097015,697.080505 
	C301.508728,703.397034 306.658569,709.937195 311.996796,716.317688 
	C316.932373,722.216980 316.784576,724.963013 311.166077,730.027588 
	C308.325623,732.588074 305.577179,735.250366 302.773560,737.851990 
	C296.850952,743.347961 293.165222,743.133240 288.167725,736.296082 
	C283.453369,729.846252 278.527588,723.586731 273.354431,717.511963 
	C268.394073,711.687012 263.398651,705.892029 258.189087,699.812988 
z"/>
<path fill="#000000" opacity="1.000000" stroke="none" 
	d="
M681.409851,433.406311 
	C678.431274,436.084106 675.717346,438.535461 672.914795,440.880798 
	C671.605530,441.976471 670.083435,442.879761 668.481812,441.336243 
	C667.036682,439.943573 666.274170,438.300507 667.762756,436.500793 
	C669.750854,434.096985 668.902161,432.618073 666.693420,430.790924 
	C654.299622,420.538300 641.879395,410.306122 630.421936,398.982330 
	C630.067139,398.631653 629.688171,398.305298 629.336243,397.951935 
	C623.276489,391.867310 623.205200,391.522186 629.100769,385.394409 
	C634.969360,379.294678 640.992676,373.343811 646.941833,367.321442 
	C649.165649,365.070312 651.196655,365.053711 653.117615,367.725525 
	C658.537476,375.263885 666.344482,380.270996 673.184814,386.264496 
	C679.922668,392.168182 687.192078,397.478882 693.420654,403.962311 
	C695.983643,406.630127 698.403870,405.938202 700.975769,404.234772 
	C702.478882,403.239227 704.012695,401.618195 705.770569,403.488220 
	C707.267273,405.080383 706.495972,406.994354 705.565063,408.593353 
	C703.106934,412.815460 699.169495,415.747070 695.878296,419.228241 
	C691.323608,424.045807 686.402405,428.516968 681.409851,433.406311 
M684.476746,411.998657 
	C673.356750,402.574371 662.210022,393.181335 651.132141,383.707825 
	C647.523132,380.621490 644.813416,381.208679 639.666321,386.823273 
	C636.881897,389.860657 640.242981,391.224670 641.731628,392.821564 
	C651.037476,402.804565 662.449463,410.394653 672.412964,419.638580 
	C674.199646,421.296265 676.087952,424.092804 678.664917,421.995667 
	C681.598328,419.608490 686.214233,417.873108 684.476746,411.998657 
z"/>
<path fill="#000000" opacity="1.000000" stroke="none" 
	d="
M311.561035,710.543152 
	C307.428772,706.327026 304.502441,701.659180 302.047852,696.778687 
	C300.382172,693.466797 300.810089,690.189026 303.854950,687.264832 
	C310.920959,680.478882 317.717285,673.412537 324.643860,666.480774 
	C327.675018,663.447388 329.969727,660.129089 329.515778,655.540527 
	C329.013397,650.462341 331.236969,646.645142 334.910553,643.312927 
	C338.966034,639.634216 343.331421,636.274048 346.701172,631.847839 
	C347.853943,630.333740 349.433197,628.794373 351.840454,629.801025 
	C354.163818,630.772583 355.007935,632.623962 355.036255,634.967102 
	C355.132904,642.959229 355.563507,650.969116 355.172699,658.938293 
	C354.869476,665.121704 356.202332,669.456116 363.002655,670.504944 
	C363.453888,670.574524 363.887238,670.953552 364.259735,671.270081 
	C364.495514,671.470459 364.602875,671.822021 364.852051,672.250610 
	C364.411743,674.587280 362.679749,675.720642 360.516357,676.326843 
	C353.899323,678.180969 348.726746,682.269043 343.960541,686.974731 
	C336.141663,694.694336 328.219971,702.317200 320.619507,710.247192 
	C317.549194,713.450562 314.990021,714.078918 311.561035,710.543152 
M315.021118,690.629028 
	C312.944366,692.846313 312.114288,695.317139 314.616516,697.604126 
	C317.648193,700.375366 318.545654,696.706604 319.898895,695.343079 
	C324.329895,690.878296 328.089966,685.629028 332.951111,681.733521 
	C344.452026,672.517395 347.125244,660.723816 344.926239,646.567566 
	C340.357819,649.602112 337.432404,652.765991 337.922668,658.483948 
	C338.246796,662.264282 336.554932,665.707275 334.097900,668.908997 
	C328.355316,676.391968 321.417419,682.778137 315.021118,690.629028 
z"/>
<path fill="#000000" opacity="1.000000" stroke="none" 
	d="
M548.117676,382.957672 
	C549.551514,382.973267 550.606079,383.162170 551.162048,384.074249 
	C552.895996,386.918915 552.318115,389.558258 549.929626,391.672089 
	C546.701355,394.528992 544.040100,399.226349 538.636597,396.769470 
	C536.546570,395.819183 536.735718,392.995544 537.825317,391.420959 
	C540.332764,387.797211 542.812622,383.889008 548.117676,382.957672 
z"/>
<path fill="#000000" opacity="1.000000" stroke="none" 
	d="
M585.140991,368.360046 
	C586.973938,366.631012 588.419678,365.006317 590.139282,363.759216 
	C592.002563,362.407837 594.306824,362.258148 596.169922,363.616272 
	C598.067017,364.999115 597.735291,367.426025 596.876648,369.065430 
	C595.105225,372.447388 592.335815,375.194702 588.916504,376.895081 
	C587.329407,377.684326 584.789124,378.458252 583.546326,376.278320 
	C582.013367,373.589447 582.621704,370.868591 585.140991,368.360046 
z"/>
<path fill="#000000" opacity="1.000000" stroke="none" 
	d="
M612.422974,355.130005 
	C608.904236,358.903381 605.869568,362.900848 600.119690,361.096771 
	C599.097595,355.475525 603.100586,348.871124 608.448853,347.295502 
	C610.096191,346.810211 611.864990,346.515900 613.085999,347.948822 
	C615.065247,350.271454 613.833496,352.595490 612.422974,355.130005 
z"/>
<path fill="#000000" opacity="1.000000" stroke="none" 
	d="
M533.561035,407.203918 
	C531.441345,409.133972 529.788086,411.121765 527.686768,412.331268 
	C525.923279,413.346313 523.278687,414.212738 521.708374,412.246765 
	C520.037170,410.154419 520.384216,407.512360 522.195801,405.395416 
	C523.486694,403.886810 524.979492,402.550629 526.386292,401.141632 
	C528.605896,398.918640 531.407288,397.765350 533.941162,399.819366 
	C536.349121,401.771393 535.571838,404.565155 533.561035,407.203918 
z"/>
<path fill="#000000" opacity="1.000000" stroke="none" 
	d="
M580.415527,351.018524 
	C584.765320,351.881073 586.594910,354.544708 584.618225,357.455475 
	C582.705994,360.271362 580.051636,362.722107 577.310547,364.784821 
	C575.632568,366.047485 572.732117,366.266968 571.290833,364.534576 
	C569.763489,362.698822 570.108154,359.899902 571.720093,358.036377 
	C574.083252,355.304321 576.266541,352.211792 580.415527,351.018524 
z"/>
<path fill="#000000" opacity="1.000000" stroke="none" 
	d="
M601.491943,341.956757 
	C598.198792,344.093201 596.978516,348.174835 592.683960,348.616394 
	C588.387329,349.058167 587.181213,348.011139 588.290955,343.779816 
	C589.739197,338.257477 595.499268,334.415771 601.570312,335.036591 
	C602.756409,337.169617 602.529907,339.389984 601.491943,341.956757 
z"/>
<path fill="#000000" opacity="1.000000" stroke="none" 
	d="
M630.409180,335.685516 
	C629.075989,340.110046 625.605774,342.334564 622.546265,344.757812 
	C621.146973,345.866119 618.773560,346.729156 617.042358,344.995880 
	C615.297485,343.248871 615.429993,340.839233 616.674194,338.986328 
	C618.616577,336.093750 621.130432,333.545258 624.091125,331.707031 
	C627.290588,329.720581 629.666382,331.223999 630.409180,335.685516 
z"/>
<path fill="#000000" opacity="1.000000" stroke="none" 
	d="
M566.541687,388.645447 
	C567.930542,384.247833 571.149170,381.839355 574.401489,379.627411 
	C576.015564,378.529663 578.287109,378.145538 579.968506,379.728119 
	C581.735901,381.391632 581.099487,383.588776 580.035522,385.240997 
	C578.062561,388.304626 575.679016,391.251129 572.211609,392.608002 
	C569.161377,393.801605 566.007141,393.994659 566.541687,388.645447 
z"/>
<path fill="#000000" opacity="1.000000" stroke="none" 
	d="
M546.192505,413.486115 
	C546.305664,421.223480 541.900757,425.241730 533.541382,425.505554 
	C531.993958,420.296326 536.595886,412.600037 541.874329,411.574341 
	C543.580505,411.242828 545.197754,411.177002 546.192505,413.486115 
z"/>
<path fill="#000000" opacity="1.000000" stroke="none" 
	d="
M558.610779,370.571960 
	C559.600037,369.623779 560.261475,368.849457 561.063232,368.269104 
	C563.176086,366.739868 565.786926,366.363647 567.458801,368.243958 
	C569.258301,370.267761 568.740723,372.939270 566.792175,375.006073 
	C565.202881,376.691833 563.678528,378.495270 561.850525,379.885071 
	C559.654602,381.554504 556.673096,382.640686 554.623840,380.438599 
	C552.822449,378.502747 553.664917,375.700531 555.499084,373.633270 
	C556.380432,372.639984 557.393433,371.763550 558.610779,370.571960 
z"/>
<path fill="#000000" opacity="1.000000" stroke="none" 
	d="
M618.062012,325.668579 
	C615.826904,327.948822 613.999023,330.175995 611.734314,331.790222 
	C609.909912,333.090607 607.358948,334.269562 605.364197,332.221283 
	C603.647278,330.458221 604.432739,327.911011 605.498901,326.171509 
	C607.224915,323.355560 609.758057,321.065125 612.596069,319.344513 
	C614.155823,318.398865 616.231262,318.268524 617.795105,319.478668 
	C619.942505,321.140411 619.141541,323.301971 618.062012,325.668579 
z"/>
<path fill="#000000" opacity="1.000000" stroke="none" 
	d="
M556.952576,407.057312 
	C554.645325,408.760376 552.631836,411.902802 550.010071,408.999878 
	C547.665161,406.403473 548.724915,403.449127 551.259216,401.136841 
	C552.848022,399.687286 554.253601,397.996582 555.985901,396.755249 
	C557.931458,395.361115 560.459839,394.419678 562.312012,396.496979 
	C564.068665,398.467285 563.348755,400.929260 561.631531,402.803741 
	C560.296387,404.261139 558.709229,405.487640 556.952576,407.057312 
z"/>
</svg>